<svg width="323" height="363" viewBox="0 0 323 363" fill="none" xmlns="http://www.w3.org/2000/svg">
<path d="M6.65589 331.788C6.25798 331.45 5.74182 331.283 5.22097 331.325C4.70011 331.367 4.21724 331.614 3.87856 332.012C3.53988 332.41 3.37314 332.926 3.41503 333.447C3.45692 333.968 3.704 334.45 4.10192 334.789C4.10192 334.789 4.10192 334.789 4.10192 334.789C22.7414 351.582 47.6528 362.651 73.0378 362.694C79.6989 362.916 86.3448 362.708 92.9746 362.252C93.1723 362.238 93.3705 362.224 93.569 362.21C115.826 360.955 135.124 347.831 150.923 333.84C151.025 333.753 151.127 333.667 151.229 333.582C171.389 316.952 187.106 292.252 186.759 265.127C186.758 264.939 186.756 264.752 186.753 264.565C186.564 241.754 163.022 231.906 146.377 224.784C146.121 224.667 145.862 224.556 145.602 224.451C138.347 221.621 130.922 222.467 123.998 222.968C123.729 222.99 123.462 223.017 123.196 223.049C115.126 223.991 108.548 229.217 103.794 234.998C103.615 235.215 103.441 235.443 103.278 235.674C97.1387 247.48 99.5065 259.239 99.7335 270.69C99.7492 270.948 99.7679 271.204 99.7896 271.46C100.604 282.76 108.218 291.789 115.51 298.954C115.699 299.143 115.891 299.329 116.085 299.513C126.121 308.542 139.217 310.385 151.187 312.829C151.41 312.87 151.634 312.91 151.858 312.95C177.931 317.403 203.908 309.53 227.217 299.186C227.352 299.125 227.487 299.065 227.622 299.004C254.207 287.187 276.351 267.138 294.224 244.8C294.312 244.694 294.401 244.586 294.489 244.479C307.63 227.896 313.593 207.643 318.979 187.998C318.997 187.929 319.015 187.859 319.034 187.79C323.291 171.65 323.684 154.09 318.029 138.062C318.012 138.013 317.994 137.964 317.976 137.914C307.319 111.648 279.522 100.332 254.822 93.2862C254.758 93.2693 254.695 93.2524 254.631 93.2357C235.42 87.9833 215.276 93.0652 197.776 100.103C197.649 100.15 197.523 100.197 197.396 100.245C170.095 111.219 146.534 129.657 128.629 153.085C128.566 153.18 128.503 153.276 128.442 153.373C123.94 160.733 123.455 169.003 122.768 176.722C122.76 176.823 122.753 176.924 122.747 177.026C122.274 185.296 126.777 192.21 130.869 198.141C130.921 198.216 130.974 198.291 131.028 198.366C138.518 208.134 149.859 212.059 160.345 215.771C160.397 215.788 160.45 215.806 160.503 215.823C182.948 222.208 205.154 214.036 225.255 206.094C225.271 206.088 225.286 206.082 225.301 206.075C254 195.684 269.961 166.198 277.14 138.711C277.176 138.594 277.211 138.477 277.247 138.36C283.1 118.883 278.303 98.7309 273.336 80.2291C273.311 80.1363 273.286 80.0435 273.261 79.9509C267.457 58.8624 257.319 38.8114 242.413 22.5449C242.387 22.5181 242.362 22.4912 242.337 22.4645C232.162 11.5257 218.133 5.18615 204.183 1.48911C204.162 1.48346 204.142 1.47784 204.121 1.47222C176.083 -4.91674 150.387 10.6748 128.786 25.4061C125.822 27.5091 122.909 29.6793 120.045 31.9072L119.755 32.1843C119.703 32.2441 119.652 32.304 119.601 32.3638C108.93 45.3035 97.8477 58.8266 94.2475 76.3488L94.2258 76.631C94.2257 76.658 94.2256 76.685 94.2256 76.712C94.1462 82.6071 98.5523 86.0067 101.24 89.3465C101.582 89.7297 102.063 89.9614 102.577 89.9912C103.091 90.021 103.595 89.8465 103.979 89.5055C104.363 89.1645 104.596 88.6848 104.628 88.1711C104.659 87.6575 104.487 87.1521 104.147 86.7667C104.147 86.7667 104.147 86.7667 104.147 86.7667C101.318 83.3883 97.921 80.2295 98.1982 76.7143C98.1982 76.6938 98.1983 76.6731 98.1984 76.6524L98.1768 76.9345C101.314 61.3145 112.14 47.5612 122.635 34.9578C122.686 34.899 122.736 34.8402 122.787 34.7812L122.496 35.0583C125.316 32.8644 128.183 30.7289 131.096 28.6619C152.256 14.0776 177.7 -0.651029 203.075 5.32081C203.093 5.3259 203.112 5.33101 203.131 5.33613C216.754 8.94916 229.929 14.9851 239.432 25.194C239.455 25.219 239.479 25.244 239.502 25.2691C253.831 40.8881 263.79 60.4812 269.424 80.9967C269.449 81.0869 269.473 81.1772 269.498 81.2676C274.471 99.676 278.921 119.121 273.443 137.211C273.41 137.32 273.377 137.429 273.343 137.538C266.021 165.082 251.193 192.337 223.772 202.407C223.758 202.413 223.743 202.419 223.728 202.425C204.021 210.315 181.995 217.936 161.747 212.045C161.7 212.029 161.652 212.013 161.605 211.997C151.363 208.451 140.473 204.305 134.265 196.047C134.221 195.984 134.176 195.922 134.132 195.859C130.086 190.066 126.291 183.791 126.724 177.273C126.729 177.192 126.734 177.111 126.741 177.029C127.372 169.415 128.049 161.542 131.801 155.515C131.852 155.436 131.903 155.357 131.954 155.279C148.919 133.023 172.582 114.421 198.799 103.979C198.92 103.933 199.042 103.887 199.164 103.842C216.641 96.8222 235.581 92.1782 253.617 97.0849C253.677 97.1006 253.737 97.1164 253.796 97.1323C277.981 103.897 304.796 115.468 314.247 139.26C314.263 139.305 314.279 139.349 314.295 139.394C319.623 154.468 319.312 171.253 315.208 186.787C315.19 186.853 315.173 186.92 315.155 186.987C309.855 206.434 303.823 226.385 291.424 241.969C291.342 242.07 291.259 242.171 291.175 242.271C273.429 264.437 251.898 283.863 225.994 295.397C225.863 295.456 225.732 295.515 225.601 295.574C202.649 305.784 177.31 313.321 152.542 309.06C152.329 309.023 152.116 308.984 151.903 308.945C140.049 306.6 127.345 304.461 118.807 296.638C118.639 296.48 118.474 296.319 118.312 296.156C111.069 289.044 104.43 280.916 103.736 271.124C103.717 270.901 103.701 270.676 103.687 270.45C103.279 259.363 101.751 246.739 106.511 237.956C106.62 237.802 106.733 237.653 106.847 237.516C111.243 232.158 117.052 227.727 123.662 226.976C123.881 226.95 124.102 226.928 124.324 226.91C131.196 226.37 138.222 225.761 144.113 228.113C144.325 228.199 144.536 228.289 144.743 228.383C161.905 235.621 182.844 245.02 182.803 264.624C182.806 264.801 182.808 264.977 182.809 265.155C183.141 290.774 168.291 314.379 148.689 330.563C148.586 330.649 148.483 330.736 148.38 330.823C132.564 344.811 114.334 357.067 93.2888 358.28C93.0933 358.294 92.8981 358.307 92.7035 358.321C86.1749 358.77 79.658 358.972 73.1701 358.756C48.4128 358.633 25.0671 348.268 6.65589 331.788Z" fill="#F5F5F5"/>
<path d="M36.9414 328.839C37.4638 328.839 37.9648 328.632 38.3342 328.262C38.7036 327.893 38.9111 327.392 38.9111 326.87C38.9111 326.347 38.7036 325.846 38.3342 325.477C37.9648 325.107 37.4638 324.9 36.9414 324.9C35.9005 324.901 34.8617 324.94 33.8518 324.991C24.3754 325.569 15.1404 326.647 5.81997 327.51C5.76586 327.515 5.71169 327.52 5.65746 327.525C4.31984 327.627 2.57209 328.238 1.51813 329.608C0.469849 330.943 0.228945 332.381 0.0344906 333.463C0.0317112 333.479 0.02896 333.495 0.0262358 333.511L0.0053823 333.674C-0.132726 339.952 2.39566 344.693 4.57173 349.548C4.573 349.551 4.57427 349.553 4.57554 349.556L4.55426 349.51C5.03558 350.581 5.48246 351.652 5.89009 352.738C6.22847 353.637 6.53882 354.551 6.85638 355.498C7.0232 355.995 7.38038 356.405 7.84933 356.638C8.31827 356.871 8.86056 356.908 9.35693 356.741C9.8533 356.575 10.2631 356.218 10.4962 355.749C10.7294 355.28 10.7667 354.737 10.6001 354.241C10.6001 354.241 10.6001 354.241 10.6001 354.241C10.2833 353.295 9.95278 352.319 9.5884 351.35C9.14904 350.178 8.66715 349.024 8.15885 347.892L8.13758 347.846C8.13636 347.843 8.13514 347.841 8.13393 347.838C6.01421 343.305 3.77035 338.262 3.94402 334.012L3.92316 334.175C3.92572 334.16 3.92827 334.146 3.93083 334.131C4.08891 333.136 4.31481 332.414 4.60387 332.068C4.86765 331.734 5.27115 331.525 6.03293 331.447C6.08725 331.441 6.1415 331.436 6.19569 331.431C15.507 330.568 24.8474 329.485 34.0514 328.925C35.0203 328.876 36.0073 328.84 36.9414 328.839Z" fill="#F5F5F5"/>
</svg>
