<svg width="44" height="44" viewBox="0 0 44 44" fill="none" xmlns="http://www.w3.org/2000/svg">
<path d="M22.5816 0.455778C22.4332 -0.152216 21.5668 -0.152216 21.4184 0.455778L18.5293 12.3571C18.5069 12.4486 18.4633 12.5334 18.402 12.6048C18.3407 12.6762 18.2634 12.7321 18.1764 12.768C18.0895 12.8039 17.9952 12.8188 17.9014 12.8115C17.8076 12.8041 17.7168 12.7748 17.6365 12.7258L7.17895 6.3562C6.64278 6.02826 6.03003 6.64344 6.35795 7.17723L12.7273 17.6352C12.7763 17.7156 12.8056 17.8063 12.813 17.9001C12.8203 17.994 12.8054 18.0882 12.7695 18.1752C12.7336 18.2621 12.6777 18.3394 12.6063 18.4007C12.5349 18.4621 12.4501 18.5057 12.3587 18.528L0.457772 21.4172C-0.152591 21.5656 -0.152591 22.4321 0.457772 22.5805L12.3539 25.4697C12.4455 25.4918 12.5306 25.5352 12.6022 25.5964C12.6739 25.6576 12.7301 25.7348 12.7663 25.8218C12.8024 25.9089 12.8175 26.0032 12.8103 26.0972C12.8031 26.1911 12.7739 26.2821 12.7249 26.3626L6.35556 36.8205C6.02763 37.3567 6.64279 37.9695 7.17655 37.6416L17.6341 31.272C17.7144 31.223 17.8052 31.1936 17.899 31.1863C17.9928 31.179 18.0871 31.1939 18.174 31.2298C18.261 31.2657 18.3383 31.3216 18.3996 31.393C18.4609 31.4644 18.5045 31.5492 18.5269 31.6406L21.4184 43.542C21.5668 44.1524 22.4332 44.1524 22.5816 43.542L25.4707 31.6454C25.4928 31.5538 25.5362 31.4687 25.5974 31.397C25.6585 31.3254 25.7358 31.2692 25.8228 31.233C25.9098 31.1968 26.0042 31.1817 26.0981 31.1889C26.1921 31.1961 26.283 31.2254 26.3635 31.2744L36.8211 37.644C37.3572 37.9719 37.97 37.3567 37.6421 36.8229L31.2727 26.365C31.2237 26.2846 31.1944 26.1938 31.187 26.1C31.1797 26.0062 31.1946 25.912 31.2305 25.825C31.2664 25.738 31.3223 25.6607 31.3937 25.5994C31.4651 25.5381 31.5499 25.4945 31.6413 25.4721L43.5422 22.5805C44.1526 22.4321 44.1526 21.5656 43.5422 21.4172L31.6461 18.528C31.5545 18.506 31.4694 18.4626 31.3978 18.4014C31.3261 18.3402 31.2699 18.2629 31.2337 18.1759C31.1976 18.0889 31.1825 17.9946 31.1897 17.9006C31.1969 17.8066 31.2261 17.7157 31.2751 17.6352L37.6444 7.17723C37.9724 6.64104 37.3572 6.02826 36.8234 6.3562L26.3659 12.7258C26.2856 12.7748 26.1948 12.8041 26.101 12.8115C26.0072 12.8188 25.9129 12.8039 25.826 12.768C25.739 12.7321 25.6617 12.6762 25.6004 12.6048C25.5391 12.5334 25.4955 12.4486 25.4731 12.3571L22.5816 0.455778Z" fill="#F5F5F5"/>
</svg>
